<svg width="51" height="44" viewBox="0 0 51 44" fill="none" xmlns="http://www.w3.org/2000/svg">
<path d="M5.97284 21.1844C6.58159 21.0155 7.08973 20.6313 7.5706 20.2695C8.81027 19.3356 10.0994 18.4931 11.4516 17.7367C12.519 17.1405 13.624 16.6288 14.7699 16.2204C16.6831 15.5399 18.6492 15.0953 20.6715 14.861C22.0476 14.7008 23.4169 14.7197 24.7913 14.7145C27.6048 14.7059 30.4167 14.7128 33.2302 14.7128C33.2302 14.7352 33.2285 14.7593 33.2234 14.7817C32.9489 15.6846 32.7238 16.6029 32.3333 17.4662C32.1133 17.952 31.8729 18.4241 31.6018 18.8825C30.6196 20.5451 29.3987 21.9942 27.893 23.1968C26.9227 23.9722 25.8741 24.6269 24.7367 25.0973C23.821 25.4763 22.8746 25.7985 21.9095 26.0466C21.6605 26.1104 21.357 25.9881 21.1609 26.25C21.0075 26.2637 20.8506 26.2706 20.6988 26.2948C19.7661 26.4481 18.8385 26.6342 17.9023 26.7531C16.9986 26.8685 16.0999 27.0098 15.1911 27.0994C14.1663 27.201 13.1397 27.4216 12.132 27.7042C10.9025 28.0488 9.68673 28.4106 8.53403 28.9774C5.862 30.2921 3.84136 32.1908 2.91885 35.1354C2.51643 36.419 2.48573 37.713 2.84382 38.9811C3.265 40.4681 4.06985 41.7603 5.14923 42.8716C5.42377 43.1542 5.74434 43.3903 5.96943 43.7211C4.62745 43.423 3.47645 42.7407 2.5079 41.7965C1.52401 40.8385 0.807832 39.6996 0.37983 38.3454C0.0166255 37.1927 -0.053287 36.0383 0.0336774 34.8752C0.113821 33.8156 0.516245 32.8352 1.04144 31.8928C1.33644 31.3603 1.54618 30.7625 1.79854 30.1973C2.35955 28.943 2.94613 27.699 3.4952 26.4395C3.86864 25.5814 4.26254 24.7303 4.65473 23.8808C5.0725 22.9728 5.42036 22.0252 5.97625 21.1861L5.97284 21.1844Z" fill="#536EB3"/>
<path d="M5.96774 43.7192C5.74265 43.3884 5.42208 43.1506 5.14754 42.8697C4.06816 41.7601 3.26161 40.4679 2.84213 38.9792C2.48404 37.7128 2.51474 36.4189 2.91716 35.1335C3.84137 32.1889 5.86202 30.2902 8.53234 28.9755C9.68504 28.4087 10.9008 28.0486 12.1303 27.7023C13.1363 27.4197 14.1646 27.1991 15.1894 27.0975C16.0982 27.0079 16.9969 26.8649 17.9006 26.7512C18.8368 26.6323 19.7661 26.4462 20.6971 26.2928C20.8489 26.267 21.0058 26.2618 21.1592 26.248C20.7977 27.1647 20.3595 28.0469 19.9469 28.9394C19.4847 29.937 19.055 30.9501 18.5844 31.9443C18.2331 32.6834 17.9279 33.4398 17.5596 34.1738C17.1964 34.8957 16.8519 35.6366 16.5433 36.3896C16.1682 37.3062 15.7146 38.1849 15.3173 39.0895C14.7273 40.43 13.8917 41.5775 12.6998 42.3907C12.0331 42.8456 11.3323 43.285 10.5462 43.5641C9.47872 43.9432 8.39081 43.969 7.28585 43.9311C7.20229 43.9276 7.11362 43.9173 7.04371 43.9828C7.00449 43.9518 6.99256 43.8346 6.91071 43.9432C6.59695 43.8691 6.28149 43.7967 5.96774 43.7226V43.7192Z" fill="#213466"/>
<path d="M6.91235 43.9397C6.9925 43.8312 7.00614 43.9483 7.04536 43.9793C6.98909 44.0086 6.93964 44.0086 6.91235 43.9397Z" fill="#536EB3"/>
<path d="M37.6722 14.6645C37.7422 14.6093 37.8035 14.6007 37.8496 14.6938C37.7728 14.7989 37.7149 14.7799 37.6722 14.6645Z" fill="#536EB3"/>
<path d="M50.3196 0.0189529H46.3278C46.3107 0.0137839 46.2937 0.0103379 46.2766 0.00516897C46.2681 0.00861495 46.2647 0.0137839 46.2561 0.0189529H45.6798C45.6798 0.0189529 45.6764 0.00689196 45.673 0C41.2838 0.00344598 36.8947 0.00172299 32.5055 0.00861495C31.2079 0.0103379 29.9102 0.0137839 28.6126 0.0189529H22.9207C18.6236 0.0189529 14.7051 2.43114 12.722 6.24239C12.6623 6.34922 12.6077 6.45777 12.5583 6.56804C12.5156 6.65591 12.473 6.74378 12.4321 6.83338L8.87848 14.704C8.27825 15.9928 7.67291 17.2799 7.08292 18.5738C6.69073 19.4336 6.34287 20.3158 5.97455 21.1876C6.5833 21.0188 7.09144 20.6345 7.57231 20.2727C8.81198 19.3388 10.1011 18.4963 11.4533 17.7399C12.5208 17.1438 13.6257 16.632 14.7716 16.2237C16.6848 15.5431 18.6509 15.0986 20.6732 14.8642C22.0493 14.704 23.4186 14.723 24.793 14.7178C27.6065 14.7092 30.4184 14.7161 33.2319 14.7161C33.295 14.7195 33.3564 14.7247 33.4195 14.7281C33.6668 14.723 33.9123 14.7178 34.1596 14.7143H37.6313C44.3054 14.7143 49.7722 9.50574 50.2787 2.89462C50.2787 2.89462 50.2787 2.89118 50.2804 2.89118C50.2821 2.84983 50.2855 2.8102 50.2872 2.76885C50.306 2.47938 50.3196 2.1882 50.3196 1.89357V0.0189529Z" fill="#EBEFFA"/>
</svg>
