<svg width="100" height="100" viewBox="0 0 100 100" fill="none" xmlns="http://www.w3.org/2000/svg">
<path d="M43.03 13.2475C46.2121 13.6851 49.4255 14.08 52.6188 14.585C54.2031 14.8363 54.975 15.9561 54.6609 17.2307C54.3647 18.4402 53.2449 18.9676 51.7032 18.6197C31.0154 13.9611 10.5565 26.4896 5.30549 47.036C-0.158744 68.4217 13.6578 90.3504 35.315 94.6612C56.29 98.8351 76.6345 85.4405 81.0732 64.4856C82.1279 59.5106 82.1616 54.4929 81.2348 49.482C80.9543 47.965 81.5422 46.8385 82.7719 46.5827C84.0555 46.3156 85.081 47.1684 85.3481 48.728C88.8061 68.8795 78.4791 88.075 59.8491 96.1311C42.8999 103.46 22.5958 98.7723 10.5633 84.756C2.77197 75.6811 -0.665896 65.1319 0.106053 53.2452C1.32008 34.6197 15.3296 18.4739 33.6656 14.5648C36.713 13.9162 39.848 13.6851 43.0278 13.2497L43.03 13.2475Z" fill="#5174DD"/>
<path d="M83.481 13.1802C85.1192 11.5286 86.663 9.97121 88.2069 8.41384C88.4964 8.12212 88.7859 7.83039 89.0799 7.5454C90.1593 6.50192 91.3307 6.40543 92.2305 7.28285C93.1057 8.13558 93.0361 9.42366 92.0241 10.4492C90.2647 12.2265 88.4875 13.9858 86.7214 15.7541C86.4656 16.0099 86.2255 16.2837 85.8821 16.6562C89.6768 17.6099 93.3368 18.53 96.9968 19.45C97.4299 19.5577 97.8698 19.6363 98.2961 19.7664C100.091 20.3162 100.567 22.0711 99.2454 23.422C96.9991 25.7154 94.7124 27.9684 92.4437 30.2371C88.4852 34.1956 84.5088 38.1384 80.5795 42.126C79.6684 43.0506 78.7573 43.3333 77.476 42.9945C73.0911 41.8343 68.6748 40.7841 64.281 39.6531C63.4507 39.4399 62.892 39.5387 62.2479 40.1917C56.9497 45.5549 51.6179 50.8868 46.2524 56.1827C45.7385 56.6898 44.9262 57.1835 44.2642 57.1723C43.6695 57.1611 42.8325 56.5597 42.5767 56.0009C42.3231 55.4466 42.5969 54.6051 42.7742 53.9229C42.8572 53.6065 43.2544 53.3709 43.5169 53.1061C48.9789 47.6419 54.4274 42.1642 59.9231 36.7336C60.5559 36.1075 60.6367 35.569 60.4325 34.779C59.4182 30.8542 58.4712 26.9137 57.4412 22.9934C57.1113 21.7367 57.3716 20.8009 58.3029 19.8786C64.4516 13.7816 70.5643 7.65087 76.6838 1.5224C77.3638 0.840214 78.0527 0.220859 79.1163 0.508096C80.2047 0.802065 80.575 1.66153 80.8151 2.65564C81.5713 5.76363 82.3523 8.86489 83.1287 11.9684C83.2162 12.3185 83.3262 12.6641 83.4765 13.1824L83.481 13.1802ZM66.4712 35.9482C69.2067 36.6259 71.6976 37.2452 74.1907 37.8579C75.4182 38.1586 76.7758 38.9036 77.8417 38.6074C78.9503 38.2977 79.7918 36.9917 80.7208 36.0896C81.8563 34.9877 82.9626 33.8545 84.2148 32.6023C80.3842 31.6396 76.7915 30.7286 73.1898 29.8489C72.961 29.7928 72.5929 29.9095 72.4201 30.0778C70.4723 31.9718 68.5469 33.8949 66.4757 35.9482H66.4712ZM76.1969 26.3011C79.8973 27.2323 83.389 28.1345 86.8987 28.958C87.2981 29.0523 87.9175 28.8391 88.2316 28.5474C89.6499 27.2256 90.9963 25.8253 92.3674 24.452C92.8274 23.9897 93.2807 23.523 93.8462 22.9462C90.0381 21.9835 86.4431 21.0702 82.8415 20.1816C82.6328 20.13 82.2962 20.2063 82.148 20.3544C80.1868 22.2865 78.2501 24.241 76.1969 26.3011ZM77.4939 6.53334C75.4227 8.62478 73.4995 10.5434 71.619 12.5025C71.4305 12.6977 71.4036 13.169 71.4732 13.4741C71.9085 15.395 72.3865 17.307 72.8645 19.2166C73.1539 20.3701 73.4704 21.519 73.8114 22.8116C75.8356 20.7852 77.7138 18.9249 79.5584 17.0287C79.7649 16.8155 79.9107 16.3712 79.8434 16.0907C79.1074 12.9827 78.3264 9.88369 77.4939 6.53334ZM64.1351 32.4856C66.2042 30.4166 68.1318 28.5002 70.0325 26.5569C70.1918 26.3931 70.2591 26.0183 70.203 25.7827C69.4513 22.6478 68.6703 19.5196 67.8535 16.2186C65.8002 18.2741 63.8502 20.2152 61.9225 22.1765C61.7744 22.3269 61.6757 22.6523 61.7251 22.8565C62.4925 25.9959 63.2891 29.1263 64.1351 32.4856Z" fill="#5174DD"/>
<path d="M68.2866 56.5619C68.2664 53.3821 67.6156 50.3459 66.5542 47.3726C66.3433 46.7802 66.2558 46.0509 66.3971 45.4517C66.6013 44.581 67.3464 44.1255 68.2485 44.112C69.2044 44.0985 69.9427 44.5788 70.2098 45.4876C70.8919 47.8012 71.7828 50.1013 72.0768 52.4711C73.3424 62.6321 70.2569 71.3546 62.6922 78.282C56.4785 83.9729 49.0283 86.5198 40.6042 85.7569C27.3868 84.5608 17.1158 75.6497 14.313 62.6702C10.7113 45.9858 21.7969 30.751 37.3054 27.726C43.1354 26.5883 48.7904 27.1628 54.2838 29.4046C55.9691 30.0913 56.5525 31.0943 56.0364 32.3488C55.5158 33.6166 54.3646 33.9331 52.7265 33.2621C38.966 27.6116 23.5899 34.7117 18.9873 48.8424C14.3242 63.1572 23.5158 78.6163 38.2771 81.2935C52.2777 83.8337 65.2953 74.8733 67.8558 60.8974C68.1161 59.4747 68.1475 58.0093 68.2844 56.5642L68.2866 56.5619Z" fill="#5174DD"/>
<path d="M27.3016 56.9232C27.3173 48.0503 33.9933 41.1207 42.46 40.7886C43.9927 40.728 45.007 41.5022 45.0654 42.7746C45.1237 44.0828 44.2149 44.9199 42.6732 44.9737C36.5021 45.1891 31.6662 50.0318 31.4238 56.2365C31.1972 62.0643 35.7548 67.3266 41.641 68.0357C48.2048 68.8256 54.1515 63.8685 54.5195 57.2935C54.625 55.4287 55.3879 54.4256 56.6872 54.4458C58.0718 54.466 58.7809 55.514 58.7203 57.4483C58.4959 64.6427 52.3293 71.1437 45.2314 72.1243C37.3055 73.2194 28.9801 67.9302 27.499 59.0842C27.3577 58.2427 27.3419 57.3788 27.3038 56.9255L27.3016 56.9232Z" fill="#5174DD"/>
</svg>
