<svg width="100" height="100" viewBox="0 0 100 100" fill="none" xmlns="http://www.w3.org/2000/svg">
<path d="M49.2315 80.7888C49.1216 81.9593 49.0953 82.9961 48.9161 84.0066C48.1684 88.2779 43.7681 91.0777 39.6807 89.6515C35.6459 88.2445 31.6779 86.6129 27.7793 84.8642C25.3283 83.7653 24.0001 81.6177 23.8926 78.8896C23.7946 76.4267 23.8185 73.9566 23.8472 71.4889C23.8544 70.8176 23.6179 70.5142 23.0135 70.2753C16.8645 67.8339 10.7394 65.3327 4.57369 62.9319C3.27652 62.4254 2.51925 61.6586 2.01997 60.371C-0.717687 53.2951 -0.68902 46.2718 2.20631 39.2533C2.61003 38.2738 3.25741 37.6432 4.25358 37.2466C24.5949 29.1053 44.9267 20.9449 65.2609 12.794C67.5852 11.8624 69.525 13.1786 69.1977 15.4409C69.0281 16.6162 68.2183 17.1657 67.1982 17.5742C61.0946 20.0108 54.9982 22.4714 48.8994 24.9152C35.1156 30.4383 21.3293 35.9495 7.5574 41.5036C7.08918 41.6923 6.60902 42.2251 6.43702 42.7076C4.70508 47.557 4.70508 52.4399 6.42985 57.2893C6.6114 57.7982 7.14413 58.35 7.64579 58.5531C27.2943 66.465 46.9572 74.3364 66.6177 82.2149C68.9803 83.1609 69.7687 84.4055 69.0616 86.0587C68.3951 87.6138 66.9689 87.9148 64.6565 86.9879C59.5514 84.9383 54.4464 82.8862 49.2291 80.7912L49.2315 80.7888ZM28.9475 72.6666C28.9475 74.721 28.828 76.6273 29.012 78.5002C29.0788 79.1834 29.731 80.1151 30.3521 80.3874C33.8662 81.9211 37.4399 83.3186 41.0209 84.6946C42.4661 85.2488 43.8541 84.2407 43.9186 82.6832C43.964 81.6129 43.8971 80.5356 43.9425 79.4653C43.9688 78.8418 43.7323 78.5647 43.1541 78.3473C41.3386 77.6665 39.5517 76.9164 37.7505 76.195C34.8599 75.0364 31.967 73.8777 28.9427 72.6642L28.9475 72.6666Z" fill="#5174DD"/>
<path d="M99.9976 50.0057C99.7563 59.6878 98.7411 69.2147 95.6331 78.4238C94.3168 82.3201 92.6399 86.0467 89.907 89.1857C87.5276 91.9162 84.6825 93.7079 80.8651 93.2492C78.3352 92.9458 76.3501 91.608 74.6348 89.8188C71.5365 86.589 69.7424 82.6115 68.3234 78.4572C66.011 71.6919 64.893 64.6901 64.4176 57.5712C64.0043 51.4031 64.0378 45.2422 64.6899 39.098C65.5738 30.768 67.1553 22.6076 71.1232 15.1065C72.4538 12.591 74.1165 10.3192 76.4432 8.61349C80.0457 5.97377 84.2549 6.03588 87.7737 8.79982C91.1396 11.4443 93.0722 15.0921 94.6441 18.9454C96.9852 24.6763 98.3254 30.6772 98.968 36.8166C99.4267 41.2002 99.6632 45.6101 100 50.0057H99.9976ZM94.6991 50.3043C94.5916 42.1725 93.9155 34.3465 91.8252 26.7021C90.6571 22.4356 89.2022 18.2741 86.4503 14.7195C83.4857 10.8901 80.5378 10.8853 77.5373 14.6741C75.3826 17.3926 74.0639 20.5412 73.0008 23.802C70.4806 31.5396 69.5107 39.5208 69.3387 47.6239C69.1571 56.2096 69.8332 64.7068 72.0501 73.0297C73.2206 77.4229 74.6826 81.7133 77.5469 85.3444C80.5569 89.1618 83.6051 89.2263 86.4001 85.2632C88.0269 82.9579 89.3719 80.3612 90.368 77.7167C93.7172 68.8229 94.5175 59.4847 94.6943 50.3067L94.6991 50.3043Z" fill="#5174DD"/>
<path d="M87.0738 50.1633C87.4489 56.4317 83.2922 61.8617 78.0486 63.6939C76.1208 64.3676 74.4127 63.3571 74.3315 61.489C74.2789 60.2826 74.9239 59.4131 76.3286 58.8517C79.0973 57.748 81.0228 55.8082 81.6534 52.889C82.7308 47.8986 81.4121 43.0659 76.0897 41.0784C74.6038 40.5242 73.9827 39.0741 74.4987 37.6981C75.0028 36.3532 76.4242 35.7727 77.9602 36.2839C83.1943 38.0254 87.0332 43.3359 87.0738 48.8876C87.0762 49.2842 87.0738 49.6831 87.0738 50.1657V50.1633Z" fill="#5174DD"/>
</svg>
