<svg width="100" height="100" viewBox="0 0 100 100" fill="none" xmlns="http://www.w3.org/2000/svg">
<path d="M0 57.2245C0 57.2255 0.000920569 57.2263 0.00192572 57.2261C6.08515 56.1618 12.1703 55.0955 18.2535 54.0331C20.4 53.6581 22.5445 53.2831 24.6929 52.9199C25.4621 52.7917 26.2127 53.3785 26.36 54.1444C26.4209 54.4606 26.455 54.7703 26.4253 55.0741C26.394 55.3983 25.685 55.828 25.228 55.912C21.0094 56.701 16.779 57.4217 12.5525 58.1678C9.03107 58.7889 5.50966 59.4197 1.98824 60.0389C1.72803 60.0849 1.46547 60.1186 1.19026 60.1516C0.760755 60.2031 0.335447 59.9793 0.126066 59.6008C0.0397836 59.4448 0 59.2794 0 59.1011C0 58.4753 0 57.8506 0 57.2245Z" fill="#5174DD"/>
<path d="M99.9987 59.3755C99.9984 59.3752 99.9978 59.3753 99.9976 59.3757C99.9033 59.5532 99.8091 59.7308 99.7035 59.9291C99.6168 60.0919 99.4417 60.1878 99.2575 60.1777C98.9943 60.1633 98.7402 60.1517 98.4922 60.1092C90.7756 58.7537 83.057 57.3944 75.3423 56.0272C74.4226 55.864 73.8452 55.6019 73.6025 55.1771C72.8123 53.7937 75.2548 52.9099 76.8242 53.1838C84.3199 54.4923 91.8859 55.8118 99.4535 57.1329C99.7694 57.1881 100 57.4624 100 57.7832V59.375C100 59.3756 99.9992 59.376 99.9987 59.3755Z" fill="#5174DD"/>
<path d="M99.9981 41.13C99.9981 42.0801 99.315 42.8928 98.3789 43.0561C92.9305 44.0065 87.4716 44.9577 81.8827 45.932C81.0719 46.0734 80.2995 45.5674 80.132 44.7616C79.9569 43.9192 80.5077 43.0769 81.3549 42.9265C87.2285 41.8835 92.9596 40.8666 98.7314 39.842C99.1853 39.7614 99.6527 40.0009 99.8759 40.4043C99.9642 40.564 99.9981 40.721 99.9981 40.9035V41.13Z" fill="#5174DD"/>
<path d="M0 40.8917C0 40.7167 0.0222622 40.5833 0.104282 40.4287C0.32236 40.0176 0.801036 39.7545 1.25924 39.8358C7.0036 40.854 12.7527 41.872 18.6482 42.9166C19.4921 43.0661 20.0404 43.9116 19.8683 44.7512C19.7031 45.5568 18.9337 46.0564 18.1235 45.9158C12.5373 44.947 7.07962 44.0002 1.63367 43.0566C0.689513 42.893 0 42.0738 0 41.1156C0 41.041 0 40.9664 0 40.8917Z" fill="#5174DD"/>
<path d="M49.999 99.999C49.1361 99.999 48.4366 99.2995 48.4366 98.4365V81.9533C48.4366 81.0985 49.1294 80.4056 49.9842 80.4056C50.8368 80.4056 51.5288 81.0952 51.5322 81.9478C51.5432 84.7374 51.5565 87.4894 51.5615 90.2414C51.5664 92.9725 51.5631 95.705 51.5619 98.4365C51.5615 99.2995 50.8619 99.999 49.999 99.999Z" fill="#5174DD"/>
<path d="M50.0016 0.000976562C50.8631 0.000976562 51.5615 0.699351 51.5615 1.56084V10.8025C51.5615 11.6638 50.8632 12.3621 50.0019 12.3621C49.1482 12.3621 48.4529 11.6758 48.4464 10.8222C48.4225 7.71579 48.441 4.63835 48.4394 1.56605C48.4389 0.702525 49.1381 0.000976562 50.0016 0.000976562Z" fill="#5174DD"/>
<path d="M49.9131 64.7168C49.9131 64.7142 49.9102 64.7127 49.9081 64.7142C48.4275 65.7754 47.0072 66.7879 45.5889 67.8082C43.2902 69.4605 41.009 71.1363 38.6945 72.7632C37.1692 73.8355 35.847 73.8609 34.6458 72.9449C33.6087 72.1539 33.2923 70.7867 33.8431 69.1051C35.1087 65.2399 36.3743 61.3748 37.7121 57.535C38.0871 56.4569 37.8664 55.8026 36.9426 55.1483C33.6771 52.8359 30.4389 50.4844 27.2397 48.0821C26.5639 47.5762 25.8725 46.8809 25.5757 46.1212C24.8101 44.1603 26.2651 42.2365 28.4701 42.2091C32.1126 42.1623 35.7591 42.2072 39.4016 42.1857C43.1691 42.1642 42.3078 42.5919 43.4484 39.2658C44.6202 35.8499 45.7315 32.4124 46.876 28.9887C47.4463 27.2836 48.4893 26.4028 49.9053 26.4047C51.2998 26.4047 52.4072 27.3051 52.9658 28.9789C54.2724 32.8988 55.5849 36.8167 56.8192 40.7599C57.1629 41.8595 57.743 42.2228 58.8641 42.2091C62.9636 42.1583 67.0631 42.1857 71.1627 42.1916C72.9439 42.1935 73.9888 42.8107 74.4439 44.0997C74.9458 45.5216 74.4849 46.8497 73.0415 47.9082C69.7096 50.3515 66.3796 52.7968 63.0046 55.1815C62.1023 55.8182 61.9128 56.4374 62.2625 57.4784C63.5691 61.3631 64.7878 65.277 66.0534 69.1773C66.4108 70.2769 66.5339 71.3414 65.7936 72.3414C64.7077 73.8081 62.8835 74.062 61.2996 72.9234C57.9461 70.5113 54.6083 68.0758 51.2627 65.652C50.8724 65.3691 50.4684 65.1017 49.9145 64.7194C49.9136 64.7188 49.9131 64.7178 49.9131 64.7168ZM41.9904 45.3243C41.9898 45.3231 41.9886 45.3223 41.9872 45.3223H29.1549C29.0799 45.3223 29.015 45.3742 28.9992 45.4475C28.9855 45.5113 29.0107 45.5775 29.064 45.6152C30.1166 46.3619 31.1674 47.1068 32.2201 47.8535C34.6556 49.6406 37.0911 51.4297 39.5266 53.2167C41.2472 54.4784 41.6027 55.578 40.9289 57.6053C39.6691 61.3963 38.3996 65.1852 37.1399 68.9781C37.1177 69.0448 37.0966 69.1119 37.0759 69.181C36.9626 69.5595 37.4052 69.8829 37.7258 69.6519C40.9914 67.2907 44.253 64.9274 47.5186 62.5642C49.4111 61.1951 50.4443 61.2146 52.3603 62.5974C55.0204 64.5173 57.6903 66.4215 60.3582 68.3336C61.167 68.9402 61.974 69.5468 62.7827 70.1552C62.8451 70.2021 62.9307 70.2034 62.9939 70.1575C63.0581 70.1109 63.0854 70.0282 63.0608 69.9529C61.8227 66.169 60.5865 62.3852 59.3484 58.6014C59.2879 58.3826 59.2352 58.1619 59.1688 57.9471C58.3524 55.3143 58.6141 54.5565 60.8679 52.9159C63.1784 51.2363 65.4792 49.5449 67.7838 47.8575C68.8386 47.1097 69.8951 46.3601 70.95 45.6123C71.0191 45.5633 71.0468 45.4743 71.0171 45.395C70.9893 45.321 70.9186 45.2716 70.8396 45.2716C70.505 45.2716 70.1715 45.2716 69.8365 45.2716C65.8366 45.2716 61.8367 45.2774 57.8368 45.2677C55.7782 45.2618 54.8036 44.5392 54.1649 42.5997C52.9267 38.8361 51.6884 35.0706 50.4482 31.307C50.277 30.7865 49.5304 30.8072 49.3743 31.3324C49.1786 31.9905 48.9987 32.5957 48.8194 33.2015C47.792 36.2424 46.7003 39.2619 45.7608 42.3302C45.1673 44.267 44.039 45.3196 41.9936 45.3262C41.9922 45.3263 41.991 45.3255 41.9904 45.3243Z" fill="#5174DD"/>
<path d="M63.3288 36.5181C62.7759 37.1772 61.7608 37.2303 61.1102 36.6674C60.4732 36.1162 60.426 35.1813 60.9675 34.5361C67.4812 26.7749 73.913 19.1116 80.4314 11.3426C80.98 10.6888 81.967 10.6153 82.6176 11.1677C83.2635 11.716 83.3339 12.6735 82.7894 13.3225C76.2701 21.0932 69.8431 28.7525 63.3288 36.5181Z" fill="#5174DD"/>
<path d="M38.9562 34.4331C39.492 35.0714 39.4476 35.9977 38.8237 36.5502C38.1764 37.1236 37.1578 37.073 36.6017 36.4108C30.1212 28.6928 23.7154 21.0654 17.2119 13.3228C16.6743 12.6827 16.7126 11.759 17.3389 11.2055C17.9887 10.6312 19.0161 10.6774 19.5736 11.3417C26.0501 19.0575 32.4437 26.6747 38.9562 34.4331Z" fill="#5174DD"/>
<path d="M65.3901 3.2481C65.6797 2.45296 66.5639 2.0453 67.3585 2.33645C68.1507 2.62675 68.5541 3.50214 68.2655 4.29504C65.5788 11.6771 62.9339 18.9445 60.2425 26.3372C59.9534 27.1315 59.072 27.5411 58.2769 27.2541C57.4785 26.966 57.0707 26.0853 57.3613 25.2878C60.0518 17.9027 62.7042 10.6225 65.3901 3.2481Z" fill="#5174DD"/>
<path d="M34.0953 1.8503C34.0951 1.85045 34.0951 1.85067 34.0952 1.85087C36.9635 9.72451 39.771 17.4348 42.6357 25.2965C42.9227 26.0839 42.573 26.9369 41.7893 27.2338C40.9919 27.5358 40.0518 27.1464 39.7599 26.3452C36.9674 18.6781 34.2165 11.1247 31.4083 3.41515C31.3024 3.12418 31.453 2.80234 31.7443 2.69728C32.5151 2.41929 33.2222 2.16365 34.0947 1.84941C34.0953 1.84922 34.0957 1.84989 34.0953 1.8503Z" fill="#5174DD"/>
<path d="M68.2649 95.6883C68.5579 96.4912 68.1207 97.3853 67.3144 97.6687C66.5214 97.9474 65.6698 97.5295 65.3825 96.7396C63.4066 91.3076 61.4653 85.9683 59.4837 80.5176C59.1995 79.7359 59.5466 78.8889 60.3236 78.592C61.1174 78.2888 62.0536 78.6761 62.345 79.4744C64.3193 84.8823 66.2667 90.2141 68.2649 95.6883Z" fill="#5174DD"/>
<path d="M34.6198 96.7265C34.3294 97.525 33.4493 97.9363 32.6525 97.6413C31.8618 97.3486 31.4516 96.4701 31.7404 95.6779C33.7203 90.2475 35.6655 84.9091 37.6468 79.4731C37.936 78.6797 38.8309 78.2781 39.6233 78.5702C40.4104 78.8603 40.7988 79.7263 40.5123 80.5148C38.5374 85.9483 36.596 91.2918 34.6198 96.7265Z" fill="#5174DD"/>
<path d="M75.9633 66.7327C75.9633 66.733 75.9638 66.7331 75.964 66.7328C76.3685 65.982 76.7186 65.3313 77.1194 64.5865C77.2833 64.282 77.6659 64.1723 77.9662 64.3437C83.1912 67.3267 88.3226 70.2564 93.5805 73.2582C94.3135 73.6767 94.5905 74.5733 94.1745 75.3078C93.7565 76.0458 92.7981 76.3396 92.0614 75.9192C86.6743 72.8452 81.3782 69.823 75.9639 66.7324C75.9636 66.7323 75.9633 66.7324 75.9633 66.7327Z" fill="#5174DD"/>
<path d="M6.85908 76.6872C6.85918 76.6871 6.8592 76.6869 6.85913 76.6868C6.61533 76.2749 6.39634 75.9048 6.18208 75.5431C5.69422 74.7194 5.97498 73.6553 6.80646 73.1808C11.6946 70.3915 16.5173 67.6392 21.4392 64.8309C22.1735 64.4118 23.092 64.6386 23.5099 65.3736C23.9269 66.1071 23.6877 67.069 22.955 67.4877C17.5836 70.5569 12.3057 73.5748 6.85948 76.6877C6.85914 76.6879 6.8588 76.6875 6.85908 76.6872Z" fill="#5174DD"/>
<path d="M70.5968 76.9434C70.0503 76.2932 70.1415 75.3157 70.7902 74.7673C71.4424 74.2159 72.4097 74.3068 72.9587 74.9611C76.2471 78.8802 79.4882 82.7433 82.7948 86.6834C83.3305 87.3218 83.2907 88.2436 82.6661 88.7954C82.0195 89.3665 80.9983 89.3203 80.4433 88.6597C77.1579 84.7493 73.922 80.8991 70.5968 76.9434Z" fill="#5174DD"/>
<path d="M19.5617 88.6646C19.0077 89.3242 17.9909 89.3749 17.3432 88.8071C16.7148 88.2563 16.6711 87.3295 17.2082 86.6894C20.5075 82.757 23.7455 78.8987 27.0471 74.9668C27.5973 74.3116 28.5643 74.2206 29.214 74.7774C29.8545 75.3262 29.9455 76.299 29.4031 76.9449C26.111 80.8659 22.8779 84.7155 19.5617 88.6646Z" fill="#5174DD"/>
<path d="M21.1241 31.2723C21.8617 31.6897 22.1215 32.6224 21.6985 33.3568C21.2797 34.0839 20.3497 34.3429 19.6193 33.9301C15.2839 31.4794 11.0338 29.0765 6.68026 26.616C5.96102 26.2096 5.67891 25.3331 6.05994 24.6001C6.45978 23.8308 7.43207 23.5208 8.18644 23.948C12.5182 26.4011 16.7743 28.8108 21.1241 31.2723Z" fill="#5174DD"/>
<path d="M81.1115 33.6529C81.1116 33.6527 81.1117 33.6526 81.1116 33.6524C80.8785 33.2522 80.6643 32.8849 80.4469 32.5126C79.965 31.687 80.251 30.627 81.0828 30.1559C84.7508 28.0788 88.3602 26.0339 92.0429 23.9493C92.7761 23.5343 93.7111 23.7953 94.1327 24.5247C94.5588 25.262 94.2968 26.1974 93.5556 26.6166C89.3954 28.9695 85.3189 31.2748 81.112 33.6534C81.1116 33.6536 81.1113 33.6531 81.1115 33.6529Z" fill="#5174DD"/>
<path d="M49.9814 75.81C49.2005 75.81 48.5674 75.1769 48.5674 74.396V73.2651C48.5674 72.4842 49.2005 71.8511 49.9814 71.8511C50.7624 71.8511 51.3955 72.4842 51.3955 73.2651V74.396C51.3955 75.1769 50.7624 75.81 49.9814 75.81Z" fill="#5174DD"/>
<path d="M75.7961 33.1644C75.7969 33.1644 75.7976 33.1648 75.798 33.1655C75.999 33.4887 76.1871 33.791 76.3717 34.0877C76.9433 35.0063 76.6598 36.2142 75.7397 36.7835C75.547 36.9028 75.3539 37.0222 75.1592 37.1427C74.447 37.5832 73.515 37.3664 73.0749 36.6539C72.6364 35.9442 72.8506 35.0096 73.5575 34.5664C74.2792 34.114 74.9947 33.6656 75.7948 33.1648C75.7952 33.1645 75.7956 33.1644 75.7961 33.1644Z" fill="#5174DD"/>
<path d="M28.7166 60.5846C29.4303 60.1364 30.3785 60.3637 30.8232 61.0796C31.2674 61.7947 31.0389 62.725 30.3215 63.1655C30.0043 63.3602 29.6884 63.5542 29.3679 63.7512C28.6637 64.1838 27.7569 63.9943 27.3124 63.2977C26.8604 62.5892 27.0576 61.626 27.7693 61.1793C28.0847 60.9813 28.3982 60.7845 28.7166 60.5846Z" fill="#5174DD"/>
<path d="M68.6253 62.355C68.6243 62.354 68.6242 62.3524 68.6249 62.3512C68.8763 61.941 69.1016 61.573 69.3203 61.2159C69.8057 60.4236 70.8396 60.172 71.6352 60.6521C71.908 60.8167 72.1806 60.9812 72.4569 61.1479C73.1735 61.5805 73.4231 62.48 72.9902 63.1964C72.5555 63.9157 71.5991 64.1758 70.8824 63.737C70.1479 63.2873 69.4246 62.8445 68.6259 62.3554C68.6257 62.3553 68.6255 62.3551 68.6253 62.355Z" fill="#5174DD"/>
<path d="M28.4835 35.5928C29.1923 36.0313 29.3984 36.9817 28.9597 37.6903C28.5267 38.3896 27.626 38.5936 26.9185 38.174C26.5949 37.9821 26.2739 37.7917 25.9492 37.599C25.218 37.1651 24.9803 36.2237 25.4282 35.501C25.8705 34.7874 26.8123 34.5592 27.5263 35.0008C27.8443 35.1974 28.1612 35.3934 28.4835 35.5928Z" fill="#5174DD"/>
<path d="M49.9981 20.7662C49.209 20.7662 48.5694 20.1265 48.5694 19.3375V18.3629C48.5694 17.5739 49.209 16.9342 49.9981 16.9342C50.7871 16.9342 51.4268 17.5739 51.4268 18.3629V19.3375C51.4268 20.1265 50.7871 20.7662 49.9981 20.7662Z" fill="#5174DD"/>
</svg>
