<svg width="186" height="80" viewBox="0 0 186 80" fill="none" xmlns="http://www.w3.org/2000/svg">
<rect width="185.833" height="80" rx="40" fill="white"/>
<path d="M55.845 47V44.7756L56.2157 44.7436C56.693 44.7053 57.0786 44.5241 57.3727 44.2003C57.6667 43.8722 57.8861 43.3501 58.031 42.6342C58.1802 41.9141 58.2761 40.9467 58.3187 39.7322L58.536 33.9091H67.4209V47H64.7299V36.1271H61.1056L60.9011 40.6847C60.8329 42.1506 60.6582 43.348 60.3769 44.277C60.0999 45.206 59.6567 45.892 59.0474 46.3352C58.4423 46.7784 57.6134 47 56.5609 47H55.845ZM74.0879 47.1918C73.095 47.1918 72.2363 46.9808 71.5119 46.5589C70.7917 46.1328 70.2356 45.5405 69.8435 44.782C69.4515 44.0192 69.2555 43.1349 69.2555 42.1293C69.2555 41.1151 69.4515 40.2287 69.8435 39.4702C70.2356 38.7074 70.7917 38.1151 71.5119 37.6932C72.2363 37.267 73.095 37.054 74.0879 37.054C75.0807 37.054 75.9373 37.267 76.6575 37.6932C77.3819 38.1151 77.9401 38.7074 78.3322 39.4702C78.7242 40.2287 78.9202 41.1151 78.9202 42.1293C78.9202 43.1349 78.7242 44.0192 78.3322 44.782C77.9401 45.5405 77.3819 46.1328 76.6575 46.5589C75.9373 46.9808 75.0807 47.1918 74.0879 47.1918ZM74.1006 45.0824C74.5523 45.0824 74.9295 44.9545 75.232 44.6989C75.5346 44.4389 75.7626 44.0852 75.916 43.6378C76.0736 43.1903 76.1525 42.6811 76.1525 42.1101C76.1525 41.5391 76.0736 41.0298 75.916 40.5824C75.7626 40.1349 75.5346 39.7812 75.232 39.5213C74.9295 39.2614 74.5523 39.1314 74.1006 39.1314C73.6447 39.1314 73.2611 39.2614 72.9501 39.5213C72.6432 39.7812 72.411 40.1349 72.2533 40.5824C72.0999 41.0298 72.0232 41.5391 72.0232 42.1101C72.0232 42.6811 72.0999 43.1903 72.2533 43.6378C72.411 44.0852 72.6432 44.4389 72.9501 44.6989C73.2611 44.9545 73.6447 45.0824 74.1006 45.0824ZM87.4153 37.1818V39.3232H83.3371V47H80.6908V37.1818H87.4153ZM93.1601 47.1918C92.1672 47.1918 91.3086 46.9808 90.5841 46.5589C89.864 46.1328 89.3078 45.5405 88.9158 44.782C88.5238 44.0192 88.3277 43.1349 88.3277 42.1293C88.3277 41.1151 88.5238 40.2287 88.9158 39.4702C89.3078 38.7074 89.864 38.1151 90.5841 37.6932C91.3086 37.267 92.1672 37.054 93.1601 37.054C94.153 37.054 95.0095 37.267 95.7297 37.6932C96.4542 38.1151 97.0124 38.7074 97.4044 39.4702C97.7965 40.2287 97.9925 41.1151 97.9925 42.1293C97.9925 43.1349 97.7965 44.0192 97.4044 44.782C97.0124 45.5405 96.4542 46.1328 95.7297 46.5589C95.0095 46.9808 94.153 47.1918 93.1601 47.1918ZM93.1729 45.0824C93.6246 45.0824 94.0017 44.9545 94.3043 44.6989C94.6069 44.4389 94.8348 44.0852 94.9882 43.6378C95.1459 43.1903 95.2247 42.6811 95.2247 42.1101C95.2247 41.5391 95.1459 41.0298 94.9882 40.5824C94.8348 40.1349 94.6069 39.7812 94.3043 39.5213C94.0017 39.2614 93.6246 39.1314 93.1729 39.1314C92.7169 39.1314 92.3334 39.2614 92.0223 39.5213C91.7155 39.7812 91.4833 40.1349 91.3256 40.5824C91.1722 41.0298 91.0955 41.5391 91.0955 42.1101C91.0955 42.6811 91.1722 43.1903 91.3256 43.6378C91.4833 44.0852 91.7155 44.4389 92.0223 44.6989C92.3334 44.9545 92.7169 45.0824 93.1729 45.0824ZM98.8123 39.3232V37.1818H107.71V39.3232H104.546V47H101.951V39.3232H98.8123ZM111.962 43.4077L115.497 37.1818H118.182V47H115.587V40.755L112.065 47H109.361V37.1818H111.962V43.4077ZM120.365 47V37.1818H128.949V47H126.348V39.3232H122.934V47H120.365Z" fill="#22252E" fill-opacity="0.4"/>
</svg>
