<svg width="13" height="20" viewBox="0 0 13 20" fill="none" xmlns="http://www.w3.org/2000/svg">
<path d="M12.6632 10.7413C12.3832 10.1713 11.5931 9.69121 10.543 10.5013C9.11278 11.6415 6.8325 11.6415 6.8325 11.6415C6.8325 11.6415 4.55221 11.6415 3.12203 10.5013C2.0719 9.69121 1.2818 10.1713 1.00177 10.7413C0.501707 11.7415 1.06178 12.2315 2.33194 13.0416C3.42207 13.7417 4.91226 14.0018 5.87238 14.1018L5.07228 14.9019C3.93214 16.032 2.832 17.1221 2.0819 17.8822C1.63185 18.3423 1.63185 19.0724 2.0819 19.5024L2.22192 19.6625C2.67198 20.1125 3.41207 20.1125 3.86213 19.6625L6.8325 16.6821C7.98264 17.8122 9.07278 18.9024 9.83287 19.6625C10.2829 20.1125 11.013 20.1125 11.4731 19.6625L11.6031 19.5024C12.0632 19.0724 12.0632 18.3423 11.6031 17.8822L8.62272 14.9019L7.83262 14.0918C8.78274 14.0018 10.2529 13.7317 11.3331 13.0416C12.6032 12.2315 13.1633 11.7415 12.6632 10.7413ZM6.8325 2.57032C8.21267 2.57032 9.33281 3.69046 9.33281 5.06063C9.33281 6.44081 8.21267 7.55094 6.8325 7.55094C5.45233 7.55094 4.33219 6.44081 4.33219 5.06063C4.33219 3.69046 5.45233 2.57032 6.8325 2.57032ZM6.8325 10.1213C9.63285 10.1213 11.8931 7.86098 11.8931 5.06063C11.8931 2.27028 9.63285 0 6.8325 0C4.03215 0 1.77187 2.27028 1.77187 5.06063C1.77187 7.86098 4.03215 10.1213 6.8325 10.1213Z" fill="#22252E"/>
</svg>
