<svg width="19" height="31" viewBox="0 0 19 31" fill="none" xmlns="http://www.w3.org/2000/svg">
<path d="M18.7273 16.612C18.3072 15.7569 17.1221 15.0368 15.5469 16.252C13.4016 17.9622 9.98118 17.9622 9.98118 17.9622C9.98118 17.9622 6.56076 17.9622 4.41549 16.252C2.84029 15.0368 1.65514 15.7569 1.23509 16.612C0.484997 18.1122 1.3251 18.8473 3.23034 20.0624C4.86554 21.1126 7.10082 21.5026 8.541 21.6526L7.34085 22.8528C5.63064 24.548 3.98043 26.1832 2.85529 27.3234C2.18021 28.0134 2.18021 29.1086 2.85529 29.7537L3.06532 29.9937C3.7404 30.6688 4.85054 30.6688 5.52563 29.9937L9.98118 25.5231C11.7064 27.2183 13.3416 28.8535 14.4817 29.9937C15.1568 30.6688 16.252 30.6688 16.9421 29.9937L17.1371 29.7537C17.8272 29.1086 17.8272 28.0134 17.1371 27.3234L12.6665 22.8528L11.4814 21.6376C12.9066 21.5026 15.1118 21.0976 16.732 20.0624C18.6373 18.8473 19.4774 18.1122 18.7273 16.612ZM9.98118 4.35548C12.0514 4.35548 13.7317 6.03569 13.7317 8.09095C13.7317 10.1612 12.0514 11.8264 9.98118 11.8264C7.91093 11.8264 6.23072 10.1612 6.23072 8.09095C6.23072 6.03569 7.91093 4.35548 9.98118 4.35548ZM9.98118 15.6819C14.1817 15.6819 17.5721 12.2915 17.5721 8.09095C17.5721 3.90543 14.1817 0.5 9.98118 0.5C5.78066 0.5 2.39024 3.90543 2.39024 8.09095C2.39024 12.2915 5.78066 15.6819 9.98118 15.6819Z" fill="white"/>
</svg>
