<svg width="30" height="25" viewBox="0 0 30 25" fill="none" xmlns="http://www.w3.org/2000/svg">
<path d="M28.4781 0.133428C28.4892 0.133428 28.5039 0.133428 28.5187 0.133428C28.9042 0.133428 29.2621 0.252717 29.5554 0.458264L29.5499 0.454594C29.7638 0.639953 29.9077 0.900556 29.9428 1.19419V1.1997C29.9797 1.4236 30 1.68053 30 1.94297C30 2.06226 29.9963 2.17972 29.9871 2.29717V2.28065C29.572 6.62833 27.7716 17.1718 26.8566 22.0388C26.4692 24.0998 25.7074 24.7898 24.9695 24.8559C23.3664 25.0046 22.1489 23.8025 20.5957 22.7894C18.1644 21.2019 16.7901 20.2146 14.4307 18.6675C11.7024 16.8818 13.4715 15.8963 15.0247 14.2923C15.4324 13.8702 22.4994 7.47437 22.6378 6.89444C22.6452 6.85957 22.6489 6.82103 22.6489 6.78065C22.6489 6.6375 22.5954 6.5072 22.5087 6.4081C22.4127 6.3457 22.2928 6.31083 22.1674 6.31083C22.0844 6.31083 22.0051 6.32735 21.9313 6.35488L21.935 6.35304C21.6915 6.4081 17.8078 8.96153 10.2839 14.0133C9.46296 14.6575 8.42624 15.0649 7.29729 15.1126H7.28622C5.68687 14.9199 4.23509 14.5657 2.8571 14.061L2.99361 14.1051C1.26329 13.5435 -0.111014 13.248 0.00704627 12.2974C0.069766 11.8031 0.754764 11.2972 2.06204 10.7796C10.1148 7.28901 15.4847 4.98824 18.1718 3.87731C21.1362 2.31185 24.5729 1.02352 28.1866 0.188484L28.4762 0.131592L28.4781 0.133428Z" fill="white"/>
</svg>
