<svg width="21" height="12" viewBox="0 0 21 12" fill="none" xmlns="http://www.w3.org/2000/svg">
<path d="M12.9306 5.77974C12.5649 5.64261 12.5649 5.11893 12.5422 4.75424C12.4508 3.45523 12.9079 1.47207 12.3593 0.628913C11.971 0.127105 10.0963 0.173055 8.95386 0.241616C8.63349 0.287566 8.24511 0.355399 7.97083 0.492521C7.69655 0.629643 7.42226 0.857206 7.42226 1.06216C7.42226 1.35828 8.10833 1.31306 8.35921 1.70036C8.63349 2.111 8.63349 2.99937 8.63349 3.72874C8.63349 4.5719 8.49599 5.68929 8.15368 5.73452C7.62779 5.75713 7.33084 5.23271 7.05655 4.84541C6.50799 4.09343 5.95942 3.15837 5.54764 2.24666C5.34211 1.76819 5.22727 1.24377 4.93032 1.03882C4.47318 0.719355 3.65033 0.696745 2.85016 0.719355C2.11874 0.741966 1.06696 0.650794 0.861431 1.08404C0.70125 1.56251 1.04429 2.01837 1.22714 2.40639C2.16409 4.43478 3.16979 6.21298 4.40443 7.89929C5.54764 9.47182 6.62136 10.7256 8.72419 11.3864C9.31883 11.5688 11.9242 12.0932 12.45 11.3864C12.6329 11.1129 12.5875 10.4973 12.679 10.0415C12.7704 9.5856 12.8845 9.12974 13.319 9.10713C13.6847 9.08452 13.8902 9.40326 14.1191 9.63155C14.3707 9.88245 14.5763 10.0874 14.7591 10.3157C15.1936 10.7489 15.6507 11.3412 16.1993 11.5695C16.9534 11.889 18.1193 11.7978 19.2164 11.7518C20.108 11.7292 20.748 11.5469 20.8167 11.0225C20.8628 10.6118 20.405 10.0196 20.1307 9.6775C19.4446 8.83435 19.125 8.58344 18.3475 7.80812C18.0044 7.46604 17.57 7.10136 17.57 6.69145C17.5473 6.44055 17.7528 6.21298 17.9357 5.96208C18.7359 4.77685 19.536 3.9337 20.2675 2.70252C20.473 2.33783 20.9535 1.49468 20.7707 1.08404C20.5651 0.628184 19.4219 0.764576 18.7132 0.764576C17.7989 0.764576 16.6104 0.696015 16.3814 0.878358C15.947 1.17448 15.7641 1.65368 15.5586 2.10954C15.1014 3.15838 14.4841 4.22909 13.8441 5.02703C13.6152 5.30054 13.1815 5.87018 12.9299 5.77901L12.9306 5.77974Z" fill="#22252E"/>
</svg>
