<svg width="31" height="19" viewBox="0 0 31 19" fill="none" xmlns="http://www.w3.org/2000/svg">
<path d="M19.1283 9.16973C18.5797 8.96404 18.5797 8.17851 18.5457 7.63148C18.4086 5.68296 19.0943 2.70822 18.2715 1.44349C17.6889 0.690779 14.8769 0.759705 13.1632 0.862546C12.6827 0.931472 12.1001 1.03322 11.6887 1.2389C11.2773 1.44459 10.8658 1.78593 10.8658 2.09336C10.8658 2.53755 11.8949 2.46972 12.2713 3.05066C12.6827 3.66662 12.6827 4.99918 12.6827 6.09324C12.6827 7.35797 12.4764 9.03406 11.963 9.1019C11.1741 9.13581 10.7287 8.34918 10.3173 7.76824C9.49442 6.64027 8.67157 5.23768 8.05389 3.87011C7.7456 3.15241 7.57335 2.36578 7.12791 2.05835C6.44221 1.57915 5.20794 1.54524 4.00768 1.57915C2.91055 1.61307 1.33288 1.47631 1.02458 2.12618C0.784313 2.84389 1.29887 3.52767 1.57315 4.10971C2.97857 7.15229 4.48712 9.8196 6.33908 12.3491C8.05389 14.7078 9.66448 16.5885 12.8187 17.5798C13.7107 17.8533 17.6187 18.6399 18.4075 17.5798C18.6818 17.1695 18.6138 16.2461 18.7509 15.5623C18.888 14.8785 19.0592 14.1947 19.7109 14.1608C20.2595 14.1269 20.5677 14.605 20.9111 14.9474C21.2886 15.3238 21.5969 15.6312 21.8711 15.9737C22.5228 16.6235 23.2085 17.5119 24.0314 17.8544C25.1625 18.3336 26.9113 18.1968 28.557 18.1279C29.8944 18.094 30.8544 17.8204 30.9576 17.0338C31.0267 16.4179 30.3399 15.5295 29.9285 15.0164C28.8993 13.7516 28.4199 13.3753 27.2536 12.2123C26.7391 11.6992 26.0874 11.1522 26.0874 10.5373C26.0534 10.1609 26.3617 9.8196 26.636 9.44324C27.8362 7.6654 29.0365 6.40067 30.1336 4.5539C30.4419 4.00687 31.1627 2.74214 30.8884 2.12618C30.5801 1.4424 28.8653 1.64699 27.8022 1.64699C26.4308 1.64699 24.648 1.54414 24.3046 1.81766C23.6529 2.26185 23.3786 2.98064 23.0703 3.66443C22.3846 5.23768 21.4586 6.84376 20.4986 8.04066C20.1552 8.45093 19.5046 9.30539 19.1272 9.16863L19.1283 9.16973Z" fill="white"/>
</svg>
