<svg width="112" height="44" viewBox="0 0 112 44" fill="none" xmlns="http://www.w3.org/2000/svg">
<g clip-path="url(#clip0_1_320)">
<path d="M5.97497 21.1844C6.58373 21.0155 7.09187 20.6313 7.57273 20.2695C8.8124 19.3356 10.1015 18.4931 11.4537 17.7367C12.5212 17.1405 13.6261 16.6288 14.772 16.2204C16.6852 15.5399 18.6513 15.0953 20.6737 14.861C22.0498 14.7008 23.419 14.7197 24.7934 14.7145C27.607 14.7059 30.4188 14.7128 33.2324 14.7128C33.2324 14.7352 33.2307 14.7593 33.2255 14.7817C32.951 15.6846 32.7259 16.6029 32.3354 17.4662C32.1155 17.952 31.875 18.4241 31.6039 18.8825C30.6217 20.5451 29.4008 21.9942 27.8951 23.1968C26.9249 23.9722 25.8762 24.6269 24.7388 25.0973C23.8232 25.4763 22.8768 25.7985 21.9116 26.0466C21.6627 26.1104 21.3592 25.9881 21.1631 26.25C21.0096 26.2637 20.8527 26.2706 20.701 26.2948C19.7682 26.4481 18.8406 26.6342 17.9045 26.7531C17.0007 26.8685 16.1021 27.0098 15.1932 27.0994C14.1684 27.201 13.1419 27.4216 12.1341 27.7042C10.9047 28.0488 9.68887 28.4106 8.53616 28.9774C5.86414 30.2921 3.84349 32.1908 2.92099 35.1354C2.51856 36.419 2.48787 37.713 2.84596 38.9811C3.26714 40.4681 4.07199 41.7603 5.15137 42.8716C5.4259 43.1542 5.74648 43.3903 5.97156 43.7211C4.62958 43.423 3.47858 42.7407 2.51004 41.7965C1.52615 40.8385 0.809968 39.6996 0.381966 38.3454C0.0187618 37.1927 -0.0511508 36.0383 0.0358136 34.8752C0.115957 33.8156 0.518381 32.8352 1.04358 31.8928C1.33858 31.3603 1.54831 30.7625 1.80068 30.1973C2.36169 28.943 2.94827 27.699 3.49734 26.4395C3.87078 25.5814 4.26467 24.7303 4.65687 23.8808C5.07464 22.9728 5.42249 22.0252 5.97838 21.1861L5.97497 21.1844Z" fill="#536EB3"/>
<path d="M5.96987 43.7192C5.74479 43.3884 5.42422 43.1506 5.14968 42.8697C4.0703 41.7601 3.26375 40.4679 2.84427 38.9792C2.48618 37.7128 2.51687 36.4189 2.9193 35.1335C3.84351 32.1889 5.86415 30.2902 8.53447 28.9755C9.68718 28.4087 10.903 28.0486 12.1324 27.7023C13.1385 27.4197 14.1667 27.1991 15.1915 27.0975C16.1004 27.0079 16.999 26.8649 17.9028 26.7512C18.8389 26.6323 19.7682 26.4462 20.6993 26.2928C20.851 26.267 21.0079 26.2618 21.1614 26.248C20.7999 27.1647 20.3616 28.0469 19.949 28.9394C19.4869 29.937 19.0572 30.9501 18.5865 31.9443C18.2353 32.6834 17.93 33.4398 17.5617 34.1738C17.1985 34.8957 16.8541 35.6366 16.5454 36.3896C16.1703 37.3062 15.7167 38.1849 15.3194 39.0895C14.7294 40.43 13.8939 41.5775 12.7019 42.3907C12.0352 42.8456 11.3344 43.285 10.5483 43.5641C9.48085 43.9432 8.39294 43.969 7.28798 43.9311C7.20443 43.9276 7.11576 43.9173 7.04585 43.9828C7.00663 43.9518 6.99469 43.8346 6.91284 43.9432C6.59909 43.8691 6.28363 43.7967 5.96987 43.7226V43.7192Z" fill="#213466"/>
<path d="M6.91449 43.9397C6.99463 43.8312 7.00828 43.9483 7.04749 43.9793C6.99122 44.0086 6.94177 44.0086 6.91449 43.9397Z" fill="#536EB3"/>
<path d="M37.6744 14.6645C37.7443 14.6093 37.8057 14.6007 37.8517 14.6938C37.775 14.7989 37.717 14.7799 37.6744 14.6645Z" fill="#536EB3"/>
<path d="M50.3217 0.0189529H46.3299C46.3129 0.0137839 46.2958 0.0103379 46.2787 0.00516897C46.2702 0.00861495 46.2668 0.0137839 46.2583 0.0189529H45.6819C45.6819 0.0189529 45.6785 0.00689196 45.6751 0C41.286 0.00344598 36.8968 0.00172299 32.5077 0.00861495C31.21 0.0103379 29.9124 0.0137839 28.6147 0.0189529H22.9228C18.6257 0.0189529 14.7072 2.43114 12.7241 6.24239C12.6644 6.34922 12.6099 6.45777 12.5604 6.56804C12.5178 6.65591 12.4751 6.74378 12.4342 6.83338L8.88062 14.704C8.28039 15.9928 7.67505 17.2799 7.08506 18.5738C6.69286 19.4336 6.345 20.3158 5.97668 21.1876C6.58544 21.0188 7.09358 20.6345 7.57444 20.2727C8.81411 19.3388 10.1032 18.4963 11.4554 17.7399C12.5229 17.1438 13.6279 16.632 14.7737 16.2237C16.687 15.5431 18.653 15.0986 20.6754 14.8642C22.0515 14.704 23.4207 14.7229 24.7951 14.7178C27.6087 14.7092 30.4205 14.7161 33.2341 14.7161C33.2972 14.7195 33.3586 14.7247 33.4216 14.7281C33.6689 14.723 33.9144 14.7178 34.1617 14.7143H37.6335C44.3076 14.7143 49.7744 9.50574 50.2808 2.89462C50.2808 2.89462 50.2808 2.89118 50.2825 2.89118C50.2842 2.84983 50.2876 2.8102 50.2893 2.76885C50.3081 2.47938 50.3217 2.1882 50.3217 1.89357V0.0189529Z" fill="#EBEFFA"/>
<path d="M60.0344 9.95217H63.6051L62.9316 12.4919H59.3609L57.4136 19.8335H54.6478L59.3626 2.05054H66.6778L66.0043 4.59022H61.4532L60.031 9.95045L60.0344 9.95217Z" fill="white"/>
<path d="M68.0113 2.05031H70.7771L66.7358 17.2919H71.287L70.6134 19.8316H63.2982L68.013 2.04858L68.0113 2.05031Z" fill="white"/>
<path d="M74.4126 13.9406L74.0699 2.052H76.9618L76.9243 10.1552L81.1856 2.052H83.8252L77.1784 13.9406L75.6147 19.835H72.8489L74.4126 13.9406Z" fill="white"/>
<path d="M96.0156 6.14066L95.8468 6.77644C95.3625 8.60626 94.498 9.77444 93.1117 10.3585C94.44 10.9426 94.6617 12.29 94.1621 14.1698L93.7784 15.6171C93.0503 18.3601 91.2274 19.835 88.4616 19.835H84.1117L88.8265 2.052H93.0008C95.8672 2.052 96.742 3.39766 96.0139 6.14238L96.0156 6.14066ZM90.9205 4.59169L89.674 9.29201H90.7551C91.785 9.29201 92.5353 8.83541 92.9122 7.41222L93.1748 6.42151C93.5124 5.15166 93.2327 4.59169 92.2523 4.59169H90.9205ZM89.0005 11.8317L87.5528 17.2936H89.1369C90.0662 17.2936 90.6852 16.8611 91.0347 15.5413L91.4457 13.9923C91.8839 12.3417 91.49 11.8334 90.2333 11.8334H89.0022L89.0005 11.8317Z" fill="white"/>
<path d="M98.0959 13.9406L97.7549 2.052H100.647L100.609 10.1552L104.871 2.052H107.51L100.863 13.9406L99.2998 19.835H96.5339L98.0976 13.9406H98.0959Z" fill="white"/>
<path d="M51.2067 37.5147L56.44 24.8887H60.2869L55.572 42.6717H52.958L56.3394 29.9198L51.0465 42.6717H48.4324L49.7062 30.0973L46.3708 42.6717H43.958L48.6728 24.8887H52.5197L51.2085 37.5147H51.2067Z" fill="white"/>
<path d="M63.0766 32.3837H66.8723L66.1988 34.9234H62.403L61.0218 40.132H65.798L65.1245 42.6717H57.5825L62.2973 24.8887H69.8393L69.1658 27.4284H64.3896L63.0766 32.382V32.3837Z" fill="white"/>
<path d="M70.7465 24.8887H79.2946L78.621 27.4284H75.729L71.6877 42.6699H68.9219L72.9632 27.4284H70.0712L70.7448 24.8887H70.7465Z" fill="white"/>
<path d="M81.5676 42.6717C81.5386 42.2151 81.5113 41.9342 81.895 40.4869L82.6367 37.6922C83.0749 36.0416 82.6828 35.4317 81.426 35.4317H80.4711L78.5511 42.6717H75.7853L80.5001 24.8887H84.6744C87.5408 24.8887 88.4156 26.2343 87.6875 28.9791L87.3174 30.3764C86.8332 32.2062 85.938 33.4002 84.5499 33.9843C85.7777 34.5684 85.8732 35.9158 85.3821 37.7697L84.6539 40.5127C84.4255 41.376 84.2822 42.0118 84.3828 42.6717H81.5676ZM82.5924 27.4301L81.1447 32.892H82.2258C83.2557 32.892 84.006 32.4354 84.3828 31.0122L84.8483 29.2599C85.186 27.9901 84.9063 27.4301 83.9258 27.4301H82.5941H82.5924Z" fill="white"/>
<path d="M90.6067 24.8887H93.3726L88.6577 42.6717H85.8919L90.6067 24.8887Z" fill="white"/>
<path d="M100.446 36.0415L99.8199 38.4037C99.0662 41.2484 97.2263 42.8749 94.5116 42.8749C91.797 42.8749 90.8199 41.2484 91.5736 38.4037L94.0256 29.1565C94.7793 26.3118 96.6192 24.6853 99.3339 24.6853C102.049 24.6853 103.026 26.3118 102.272 29.1565L101.813 30.8846H99.1992L99.7039 28.979C100.042 27.7092 99.6153 27.2267 98.7354 27.2267C97.8555 27.2267 97.1751 27.7092 96.8375 28.979L94.2917 38.5812C93.954 39.8511 94.3872 40.3094 95.267 40.3094C96.1469 40.3094 96.8222 39.8528 97.1581 38.5812L97.8316 36.0415H100.446Z" fill="white"/>
<path d="M108.862 24.6853C111.553 24.6853 112.505 26.3118 111.749 29.1565L111.601 29.7147H108.987L109.183 28.9773C109.521 27.7074 109.146 27.225 108.266 27.225C107.386 27.225 106.755 27.7074 106.417 28.9773C105.447 32.6352 110.67 33.3209 109.323 38.402C108.569 41.2467 106.729 42.8732 104.015 42.8732C101.3 42.8732 100.323 41.2467 101.077 38.402L101.366 37.3097H103.981L103.643 38.5795C103.305 39.8494 103.738 40.3077 104.618 40.3077C105.498 40.3077 106.173 39.8511 106.509 38.5795C107.48 34.9216 102.257 34.2359 103.604 29.1548C104.357 26.3101 106.172 24.6836 108.862 24.6836V24.6853Z" fill="white"/>
</g>
<defs>
<clipPath id="clip0_1_320">
<rect width="112" height="44" fill="white"/>
</clipPath>
</defs>
</svg>
