<svg width="18" height="18" viewBox="0 0 18 18" fill="none" xmlns="http://www.w3.org/2000/svg">
<path d="M14.1428 5.14285C14.1428 7.98316 11.8403 10.2857 8.99998 10.2857C6.15967 10.2857 3.85713 7.98316 3.85713 5.14285C3.85713 2.30253 6.15967 0 8.99998 0C11.8403 0 14.1428 2.30253 14.1428 5.14285Z" fill="#5174DD"/>
<path d="M8.99998 12.8571C11.0565 12.8571 12.9251 12.0524 14.308 10.7406C14.9205 10.1597 15.9328 10.0967 16.3743 10.8163C17.3987 12.4862 18 14.52 18 16.7143C18 16.7594 17.9997 16.8045 17.9992 16.8495C17.9918 17.5055 17.4334 18 16.7773 18H1.22269C0.566585 18 0.00815699 17.5055 0.000761648 16.8495C0.000254399 16.8045 0 16.7594 0 16.7143C0 14.52 0.601231 12.4862 1.62569 10.8163C2.06714 10.0967 3.07946 10.1597 3.69193 10.7406C5.07484 12.0524 6.94343 12.8571 8.99998 12.8571Z" fill="#5174DD"/>
</svg>
