<svg width="100" height="100" viewBox="0 0 100 100" fill="none" xmlns="http://www.w3.org/2000/svg">
<path d="M50.0079 20.6555C62.6828 20.6555 75.355 20.6501 88.03 20.6555C95.4649 20.6582 99.9932 25.1648 99.9959 32.5644C100.001 49.9442 100.001 67.3267 99.9959 84.7066C99.9932 92.2393 95.5165 96.735 88.011 96.7377C62.6176 96.7431 37.2243 96.7431 11.8337 96.7377C4.59164 96.7377 0.011718 92.1714 0.00900151 84.9565C-0.00186427 67.3974 -0.00186427 49.8356 0.00356862 32.2737C0.00628506 25.3251 4.64054 20.6691 11.5783 20.6609C24.3891 20.6446 37.1971 20.6555 50.0079 20.6555ZM95.5029 49.0668C95.0031 49.7785 94.7423 50.1262 94.5087 50.4929C92.0693 54.315 89.0405 57.5774 85.3271 60.1906C78.6908 64.8602 71.2641 66.6694 63.2397 66.2863C61.7945 66.2184 60.9171 65.341 60.9199 64.1295C60.9199 62.918 61.8027 62.0731 63.2478 61.9808C64.1497 61.9237 65.057 61.9482 65.9616 61.9482C83.0181 61.9808 95.4812 47.8716 95.6061 31.9396C95.6387 27.7617 92.8978 25.0426 88.7037 25.0398C62.9001 25.0263 37.0993 25.0263 11.2958 25.0398C7.12066 25.0398 4.42322 27.778 4.37976 31.9423C4.24394 44.5738 12.7301 56.461 24.6933 60.4596C28.5344 61.7445 32.476 62.0297 36.4827 61.9753C38.1234 61.9536 39.0769 62.8392 39.0796 64.1322C39.0796 65.4307 38.1316 66.2537 36.4854 66.3054C23.2047 66.7047 12.7654 61.5489 5.41473 50.3761C5.20013 50.0529 4.95837 49.7486 4.49114 49.1103C4.43681 49.9578 4.38248 50.4277 4.38248 50.8977C4.37705 62.3502 4.37161 73.8028 4.38248 85.2553C4.38791 89.6885 7.06361 92.3642 11.4996 92.3669C37.1673 92.3751 62.8322 92.3751 88.4999 92.3669C92.9359 92.3669 95.6089 89.6885 95.6143 85.2526C95.6279 73.8 95.6197 62.3475 95.6143 50.895C95.6143 50.425 95.5573 49.9578 95.5002 49.0722L95.5029 49.0668Z" fill="#5174DD"/>
<path d="M49.7878 3.27297C52.909 3.27297 56.0302 3.23223 59.1514 3.29199C60.3629 3.31644 61.5989 3.43868 62.7724 3.72934C67.3415 4.86209 69.5309 7.71165 69.5663 12.4247C69.5744 13.4651 69.5798 14.5055 69.5608 15.5459C69.5255 17.4175 68.773 18.4199 67.4121 18.4389C66.0376 18.4606 65.2417 17.4555 65.2036 15.6056C65.1792 14.386 65.2118 13.1636 65.1819 11.9412C65.1276 9.86307 64.2393 8.66512 62.2264 8.07565C61.4115 7.8366 60.5422 7.6709 59.6947 7.66547C52.9987 7.63287 46.3053 7.63559 39.6093 7.66003C38.8949 7.66003 38.1614 7.77956 37.4742 7.97786C35.7601 8.46953 34.9126 9.54253 34.8311 11.33C34.7659 12.7289 34.8148 14.1333 34.7903 15.535C34.7577 17.4039 34.0053 18.4117 32.647 18.4362C31.2725 18.4606 30.4685 17.4528 30.4359 15.6084C30.4114 14.2963 30.406 12.9843 30.4359 11.6722C30.5445 7.23083 32.9676 4.35955 37.322 3.55548C38.2945 3.3762 39.2969 3.28927 40.2857 3.27841C43.4531 3.24309 46.6177 3.26482 49.7851 3.26482L49.7878 3.27297Z" fill="#5174DD"/>
<path d="M50.1328 57.6209C51.5345 57.6209 52.9389 57.5638 54.3352 57.6345C56.9212 57.7621 58.581 59.3567 58.6597 61.9373C58.7494 64.8711 58.7548 67.8157 58.6516 70.7495C58.5647 73.2622 56.9212 74.8866 54.4003 74.9681C51.4666 75.0632 48.522 75.0632 45.5882 74.9681C43.0673 74.8866 41.4239 73.254 41.3397 70.7467C41.2392 67.813 41.2419 64.8711 41.3342 61.9346C41.413 59.3567 43.0728 57.7594 45.6588 57.6345C47.1474 57.5638 48.6415 57.6209 50.1328 57.6209ZM54.3107 66.3054C54.3107 65.3111 54.3107 64.3169 54.3107 63.3254C54.3107 62.4371 53.8625 61.9916 52.9742 61.9916C50.9858 61.9916 49.0001 61.9916 47.0116 61.9916C46.1233 61.9916 45.6806 62.4399 45.6778 63.3281C45.6778 65.3166 45.6778 67.3023 45.6778 69.2907C45.6778 70.179 46.1261 70.6245 47.0143 70.6245C49.0028 70.6245 50.9885 70.6245 52.9769 70.6245C53.8652 70.6245 54.3107 70.1763 54.3107 69.288C54.3107 68.2938 54.3107 67.2996 54.3107 66.3081V66.3054Z" fill="#5174DD"/>
</svg>
