<svg width="37" height="26" viewBox="0 0 37 26" fill="none" xmlns="http://www.w3.org/2000/svg">
<path d="M13.3392 7.17862C13.3392 7.17862 14.0166 8.22075 15.4235 9.15859C16.8304 10.0964 16.8304 10.0965 16.8304 10.0965C16.8304 10.0965 24.073 3.06249 32.097 1.39496C33.6777 1.06647 34.7306 0.835049 35.3909 0.689939C36.0569 0.54354 36.3233 0.484989 36.3287 0.503232C36.3323 0.515389 36.2199 0.561671 36.0326 0.638796C35.3654 0.913504 33.7478 1.57958 33.0349 2.4892C31.5238 4.41713 21.9882 13.8482 21.2591 14.0569C20.9328 14.1503 21.2012 14.4627 21.7702 15.1251C22.4726 15.9427 23.633 17.2935 24.6981 19.4238C26.6261 23.2796 29.4397 25.2596 29.4397 25.2596L27.8746 24.3537L29.0557 25.5L23.4333 20.6019C23.4333 20.6019 17.8698 18.6912 15.4034 16.6417C13.8967 15.3897 13.1808 14.0858 12.6538 13.126C12.3181 12.5146 12.0591 12.0428 11.7211 11.813C10.8526 11.2224 9.42836 10.1108 8.55986 8.99917C7.69143 7.8875 6.02397 7.72604 6.02397 7.72604L6.0299 7.72149C3.99589 7.74485 1.12531 7.8552 0.000322465 8.27324L0 8.27291C0 8.27291 2.73792 7.17868 6.73616 7.17868C6.73616 7.17868 6.73636 7.17878 6.73671 7.17896C6.75893 7.17915 7.47084 7.17789 8.87256 6.25477C10.2977 5.31706 12.4223 5.63683 13.3402 7.17895L13.3392 7.17862Z" fill="white"/>
</svg>
