<svg width="21" height="18" viewBox="0 0 21 18" fill="none" xmlns="http://www.w3.org/2000/svg">
<path d="M19.8304 0.755618C19.8378 0.755618 19.8476 0.755618 19.8575 0.755618C20.1145 0.755618 20.3531 0.835145 20.5486 0.972176L20.5449 0.969729C20.6876 1.0933 20.7835 1.26704 20.8069 1.4628V1.46647C20.8315 1.61573 20.845 1.78702 20.845 1.96198C20.845 2.04151 20.8425 2.11981 20.8364 2.19811V2.1871C20.5597 5.08555 19.3594 12.1145 18.7494 15.3592C18.4912 16.7332 17.9833 17.1932 17.4913 17.2373C16.4226 17.3364 15.611 16.535 14.5755 15.8596C12.9546 14.8013 12.0384 14.1431 10.4655 13.1117C8.64664 11.9212 9.82601 11.2642 10.8615 10.1948C11.1333 9.91345 15.8446 5.64958 15.9369 5.26296C15.9418 5.23971 15.9443 5.21402 15.9443 5.1871C15.9443 5.09167 15.9086 5.0048 15.8508 4.93873C15.7868 4.89713 15.7069 4.87389 15.6233 4.87389C15.5679 4.87389 15.5151 4.8849 15.4659 4.90325L15.4683 4.90203C15.306 4.93873 12.7169 6.64102 7.70092 10.0089C7.15366 10.4383 6.46252 10.7099 5.70988 10.7417H5.7025C4.63627 10.6133 3.66842 10.3771 2.74976 10.0407L2.84076 10.0701C1.68721 9.69567 0.771012 9.49868 0.849719 8.86491C0.891532 8.53539 1.3482 8.19811 2.21971 7.85309C7.58819 5.52601 11.1681 3.99216 12.9595 3.25154C14.9358 2.2079 17.2269 1.34901 19.6361 0.792322L19.8292 0.754395L19.8304 0.755618Z" fill="#22252E"/>
</svg>
